<?xml version="1.0" encoding="utf-8"?>
<!-- Generator: Adobe Illustrator 24.3.0, SVG Export Plug-In . SVG Version: 6.00 Build 0)  -->
<svg version="1.1"
	 id="Ebene_1" inkscape:version="1.1-dev (48d18c81, 2020-07-08)" sodipodi:docname="OpenScienceTools2020.svg" xmlns:inkscape="http://www.inkscape.org/namespaces/inkscape" xmlns:sodipodi="http://sodipodi.sourceforge.net/DTD/sodipodi-0.dtd" xmlns:svg="http://www.w3.org/2000/svg"
	 xmlns="http://www.w3.org/2000/svg" xmlns:xlink="http://www.w3.org/1999/xlink" x="0px" y="0px" viewBox="0 0 1209.6 1427.9"
	 style="enable-background:new 0 0 1209.6 1427.9;" xml:space="preserve">
<style type="text/css">
	.st0{display:none;}
	.st1{display:inline;fill:#999999;}
	.st2{fill:#FFFFFF;}
	.st3{fill:#26DCF0;}
	.st4{fill:#EB692A;}
	.st5{fill:#F7F11C;}
</style>
<sodipodi:namedview  bordercolor="#666666" borderopacity="1" gridtolerance="10" guidetolerance="10" id="namedview18" inkscape:current-layer="layer1" inkscape:cx="-256.82204" inkscape:cy="745.12183" inkscape:pageopacity="0" inkscape:pageshadow="2" inkscape:window-height="953" inkscape:window-maximized="0" inkscape:window-width="1632" inkscape:window-x="783" inkscape:window-y="397" inkscape:zoom="0.29592476" objecttolerance="10" pagecolor="#ffffff" showgrid="false">
	</sodipodi:namedview>
<g id="layer3" transform="translate(0,197)" inkscape:groupmode="layer" inkscape:label="background" class="st0">
	<rect id="rect3749" x="-32.9" y="-197" class="st1" width="1628.8" height="1568"/>
</g>
<path id="path9" inkscape:connector-curvature="0" d="M380.1,377"/>
<g id="layer4" transform="translate(0,197)" inkscape:groupmode="layer" inkscape:label="white">
	<path id="path3765" inkscape:connector-curvature="0" class="st2" d="M681.4-185.5c-17.3,12.5-34.4,25.1-51.5,37.9
		c-20.5,15-41.2,29.9-61.4,45.3c-5.8,4.6-12.1,8.5-17.8,13.1c-3.8,5.4,0.4,11.7,1.9,17.2c11.6,31.2,21.7,62.9,33,94.2
		c5.9,14.4,9.9,29.5,16.4,43.7c4,7.2,13.5,5.8,20.4,6c47.5-0.4,94.9-1.4,142.3-3.5c4.9,0,11.1-0.7,12.9-6.1
		c7.1-19,12-38.7,18.3-57.9c8.8-28.9,18.4-57.6,27.3-86.4c2.1-5.3,1.2-12-4-15.1c-26.3-18.8-53.4-36.6-80.1-55
		c-16-10.6-31.4-22.1-47.9-31.7C688.3-185.6,684.9-187.2,681.4-185.5z"/>
	<path id="path3767" inkscape:connector-curvature="0" class="st2" d="M197.1,202.7c-20,0.2-40.1,0.2-60,1
		c-5.7,1.3-9.2,6.8-13.8,9.9c-6.3,5.7-13.6,10.6-18.8,17.2c-2.7,5.1,1.9,11.4,7.6,10.8c43.2-1.8,86.5-1.2,129.8-2.6
		c5.8,0.6,10.4-6.4,6.9-11.3c-7.3-8.7-16.6-15.5-24.8-23.3c-5.3-3.4-11.9-1.1-17.8-1.7C203.1,202.7,200.1,202.7,197.1,202.7
		L197.1,202.7z"/>
	<path id="path3769" inkscape:connector-curvature="0" class="st2" d="M69.8,259.5c-14.6,6.8-27.6,17.2-40.1,27.2
		c-9.4,20-13.3,42.4-18.6,63.8c-3.1,16,9.2,30.4,20,40.7c9.2,5.8,13.7-6.5,14.9-13.5c10.8-36.6,21.5-73.4,31.9-110.1
		C78.4,263.2,74.1,258.8,69.8,259.5L69.8,259.5z"/>
	<path id="path3771" inkscape:connector-curvature="0" class="st2" d="M207.8,242.3c-38.4,0.7-76.8,0.4-115.1,3.4
		c-9.6,5.1-8.1,18.9-12.5,27.7C68,317,53.8,360,43.5,404.1c-2.6,12.7,13.5,16.5,20.6,23.6c39.3,27.5,78.4,55.4,118.8,81.2
		c11.2,0.6,18.7-10.7,27.8-15.8c36.1-28.2,73.7-54.7,108.6-84.4c5.7-11.7-3.9-24.2-6.5-35.6c-15.9-42.4-30.4-85.6-47.8-127.1
		c-8.3-6.8-21.2-1.9-31.4-3.7C225,242.2,216.4,242.3,207.8,242.3L207.8,242.3z"/>
	<path id="path3773" inkscape:connector-curvature="0" class="st2" d="M282.7,255.8c-11.8,4.3-2.2,17.4-0.3,25.4
		c12.7,34,23.4,68.9,38.2,102.1c3.8,8.5,15,5.1,17.1-2.8c6.7-9.3,9.1-21.2,3.7-31.7c-9.3-25.2-17.4-51.2-29.9-74.9
		C302.9,267.1,293.7,257.6,282.7,255.8L282.7,255.8z"/>
	<path id="path3775" inkscape:connector-curvature="0" class="st2" d="M370,397.1c-9.4,3.8-22.5,2-29.2,10.6
		c-1.7,11.1,13.2,13.8,19.4,20.3c30.3,20.3,59.5,42.6,91.1,60.8c10.3,2.2,12.9-10.8,7.8-17.5c-2.9-11.9-8.3-23.7-19.7-29.7
		c-21.6-14.9-43.1-30.5-65.5-43.9C372.5,397.8,371.2,396.6,370,397.1L370,397.1z"/>
	<path id="path3777" inkscape:connector-curvature="0" class="st2" d="M554.6,245.4c-19.1,7.7-34.4,22.7-51.3,34.1
		c-26.9,20.7-55.4,39.6-81.5,61.3c-5.1,10.4,4,21.6,5.8,32c15,42.5,29,85.4,45.1,127.4c10.4,7,24.5,2.4,36.3,3.6
		c44.6-1.2,89.3-1.6,133.9-3.4c10.2-5.2,8.8-19.5,13.5-28.7c13-42.6,27-85.1,38.3-128.2c-2.2-11.7-16-16.4-24-23.7
		c-36.5-24.6-71.8-51.2-110-73.1C558.8,245.8,556.7,245.1,554.6,245.4L554.6,245.4z"/>
	<path id="path3779" inkscape:connector-curvature="0" class="st2" d="M325.6,412.7c-20.9,11.1-38.8,27.3-58.1,41
		c-24.7,19.7-51.1,37.6-74.3,59c-6,11.2,3.5,23.6,5.8,34.7c15.4,42.1,30,84.8,46.4,126.3c7.8,7,20.2,0.9,30.1,1.9
		c47-2.6,94.4-1.7,141.3-6.2c10.5-6.4,9.8-21.5,14.5-31.7c12.3-43,25.9-85.9,37.1-129.1c-2.9-10.8-16.6-14.3-24.9-20.9
		c-38.3-24.4-74.2-52.9-114-74.7C328.2,412.6,326.9,412.7,325.6,412.7L325.6,412.7z"/>
	<path id="path3781" inkscape:connector-curvature="0" class="st2" d="M579.5,505.7c-34.3,0.8-69-0.4-103,3.9
		c-8.4,5.6-6.2,18.1-10.6,26.5c-11.8,43.2-27.5,85.6-37.9,129.2c0.7,12.9,15.7,18.2,24,25.9c37.6,26.4,75.7,52.2,114.1,77.5
		c11,2,18.1-10.2,27.1-14.8c36.1-27.3,72.4-54.5,108.3-82.1c6.4-8.8-2.9-19.2-4.3-28.4c-15.8-44.7-30.7-90.2-48.9-133.8
		c-8.6-6.8-21.8-1.9-32.3-3.7C603.8,505.7,591.7,505.6,579.5,505.7L579.5,505.7z"/>
	<path id="path3783" inkscape:connector-curvature="0" class="st2" d="M699.2,359c-9,7.1-9.1,20.9-13.6,30.9
		c-9,30.5-20.5,60.6-28,91.4c1.6,10.7,14.2,6.4,18.9,0.5c16.9-12.9,17.9-36.1,26.3-54.1c4.3-14.8,12.8-28.9,14.2-44.3
		c-4.5-7.7-4.5-22-14.6-24.4h-1.7L699.2,359z"/>
	<path id="path3785" inkscape:connector-curvature="0" class="st2" d="M820.2,249.4c-17.8,8.5-31.8,23.7-48,34.9
		c-17.9,14.6-37.7,27.3-54.3,43.4c-5,10.6,9,13.7,16.7,13.3c9.9,2.1,20.5,0.3,28-7.1c19.5-15.2,40.4-29.3,57.7-46.9
		c3.9-10.6,9.6-22.6,6.9-34C825,251.1,823.4,248.8,820.2,249.4L820.2,249.4z"/>
	<path id="path3787" inkscape:connector-curvature="0" class="st2" d="M794.3,85.4c-12,4.1-2.6,17.9-0.8,26
		c12.3,34.4,25.2,68.4,38.2,102.3c5.4,9.6,16.3,1.6,18.7-6c5.3-8.8,13.9-18.4,6.7-28.7c-9.5-24-15.6-49.7-28.5-72.1
		c-9.7-8.3-20.2-16.6-32.2-21.3C795.7,85.7,795,85.2,794.3,85.4L794.3,85.4z"/>
	<path id="path3789" inkscape:connector-curvature="0" class="st2" d="M754.6,72.2c-48.3,0.8-96.7,0.7-144.9,3.8
		c-11.5,7.3-10.5,23.8-15.6,35.2c-11.8,41.4-24.6,82.8-34.9,124.4c2.7,10.4,16.4,13.9,23.9,21c37.7,25.6,74.7,52.1,113.1,76.4
		c10.8,1.1,17.9-10.3,26.8-14.9c35.4-26.2,70.3-53,104.5-80.6c9.9-10.8-1.9-25-4.1-36.5c-15-41.2-29.7-82.6-45.4-123.4
		C773.4,69.2,762.3,73.2,754.6,72.2z"/>
	<path id="path3791" inkscape:connector-curvature="0" class="st2" d="M788.2,402.6c-13.3,5.4-23.6,17.1-35.8,25
		c-31.7,24.8-65.1,47.6-95.4,74c-8.6,10.1,2.6,22.7,4.5,33.3c15.6,42.8,30.4,86.2,47.3,128.3c7,6.7,18.5,0.4,27.4,1.9
		c48.3-2,97.2-0.6,145.3-5.2c8.5-5.5,7.7-18.5,11.9-27.3c12.5-43.4,27.8-86.1,38.2-130.1c-0.9-14.4-17.8-19.4-27.5-27.1
		c-37.5-22.3-71.9-49.5-109.6-71.3C792.6,403.2,790.4,402.5,788.2,402.6L788.2,402.6z"/>
	<path id="path3793" inkscape:connector-curvature="0" class="st2" d="M1029.5,496.1c-28.8,1.1-58-0.2-86.6,2.9
		c-11.3,3.3-8.9,17.8-13.4,26.4c-12.8,42.9-27,85.5-38.1,128.9c-3.5,13.1,12.8,17.8,20.3,24.8c38.6,26.5,76.2,54.6,116.2,78.9
		c11.3,4.7,20.1-8.5,28.9-13.4c35.4-27.5,72.5-52.8,107.4-80.9c8.1-8.9-2.3-20.9-3.6-30.7c-15.7-45-31.3-90.4-48.3-134.7
		c-7.9-7.2-20.9-1.4-31-3C1064,495.6,1046.7,495.8,1029.5,496.1L1029.5,496.1z"/>
	<path id="path3795" inkscape:connector-curvature="0" class="st2" d="M1129.3,510.5c-10.8,6-0.4,18.9,1,27.5
		c12.6,34.8,23.9,70.2,38,104.4c5,8,14.4,1.2,16.7-5.4c5.4-11.1,18.2-22.4,11.8-35.7c-6.8-21.8-13.8-43.7-22.2-64.8
		c-12.8-9.9-26.9-19.8-42-26.1C1131.6,510.1,1130.4,510.4,1129.3,510.5L1129.3,510.5z"/>
	<path id="path3797" inkscape:connector-curvature="0" class="st2" d="M1158.1,673.9c-35.6,25.1-70.4,51.5-105.2,77.7
		c-7.4,3.2-9.4,14.6-0.5,17.2c10.7,3.3,21.7,9.5,33.1,8.3c20.5-9.1,36.8-25.6,55.2-38.2c12.7-8.7,24.9-20.9,24.6-37.4
		c-0.4-8.7,6.8-21.1-1.8-27C1161.6,673.8,1160,672.9,1158.1,673.9L1158.1,673.9z"/>
	<path id="path3799" inkscape:connector-curvature="0" class="st2" d="M899.6,678.8c-10.3,5.2-2.4,18.3-1.9,26.8
		c2.4,10,3.5,22.2,14.3,26.9c22.8,16,45.6,32.1,69.4,46.6c11.7,0.7,22.6-6.4,33.3-10.4c9.4-6.8-1.6-16.3-8-20.1
		c-33-23.5-66.6-46.5-100.4-68.9C904.3,678.7,901.9,678.1,899.6,678.8L899.6,678.8z"/>
	<path id="path3801" inkscape:connector-curvature="0" class="st2" d="M848.3,665.4c-38.1,2.1-77.2,1.5-115.4,3.9
		c-12.9,6.6,3.2,16.8,10.1,20.8c9,6.9,18.4,14.4,30.5,12.2c23,0.4,46.3,1.9,69.1,0.8c11.1-6.5,18.8-18.3,28.7-26.8
		c7.2-13.6-12.1-12.6-20.6-11.1l-1.7,0.1L848.3,665.4z"/>
	<path id="path3803" inkscape:connector-curvature="0" class="st3" d="M706,673.5c-44.6,32.2-88.5,65.4-131.1,100.2
		c-4.8,10.2,4.7,20.7,6.7,30.7c16.1,41.1,29.5,83.4,46.6,124.1c7.8,9.8,22.6,3.9,33.3,5.3c45.5-1.3,91-2.1,136.4-4.8
		c9.9-5.5,9.3-19.3,13.8-28.7c13.2-43,26.4-86,38.7-129.3c-1.1-11.3-15.4-14.1-22.5-21.2c-38.4-25.8-76.6-52.3-115.7-76.7
		C710,672.1,708.1,672.3,706,673.5z"/>
	<path id="path3805" inkscape:connector-curvature="0" class="st2" d="M564.6,797.5c-3.3,12.6-10.7,25.3-9.8,38.3
		c8.1,23.1,14.2,47.6,26.9,68.6c8.2,7.2,17.7,16,29,17c11.9-3.4,3.9-17.1,1.7-24.7c-11.8-33.1-23.2-66.7-36.7-99
		C573.4,793.4,567.7,794.2,564.6,797.5L564.6,797.5z"/>
	<path id="path3807" inkscape:connector-curvature="0" class="st2" d="M422.8,679.8c-13.3,4.4-23.4,16-35.2,23.4
		c-33.1,25.5-68.2,48.7-100.4,75.3c-3.5,10.8,5.5,21.6,7.5,32.2c14.5,42,28.8,84.1,43.7,125.9c8.2,8.2,21.8,3.4,32.2,4.9
		c47.1-0.8,94.2-0.7,141.3-3.8c10.7-4.8,9.1-19.9,14-29.5c13-43,27.4-85.7,39.1-129.1c-1.7-10.9-15-14.7-22.3-21.6
		c-37.3-24.9-73.3-51.9-111.5-75.3C428.6,680.9,425.8,679.7,422.8,679.8L422.8,679.8z"/>
	<path id="path3809" inkscape:connector-curvature="0" class="st2" d="M389.1,674.9c-13.3,1-28.5-1.1-38.2,10.2
		c-20.3,16.7-43.6,30.2-62,49.2c-5.2,8.8-4.8,20-4.4,29.8c6.9,10.7,17.5-3.4,24.8-7.5c30.3-23.4,62.6-44.3,91.7-69.1
		C407.1,678.8,396.6,673.4,389.1,674.9L389.1,674.9z"/>
	<path id="path3811" inkscape:connector-curvature="0" class="st2" d="M157.4,743.5c-9.4,7.7-20.3,13.9-28.7,22.7
		c-3.7,10.7,9.6,11.7,16.8,11.2c38.3,0.3,76.9,2.4,115.2-1.4c14-3.3,2.7-16.8-4.2-21.6c-6.3-7.9-14.3-15-25.2-12.2
		c-24.2,0.7-48.9-1.4-72.8,1.1L157.4,743.5z"/>
	<path id="path3813" inkscape:connector-curvature="0" class="st2" d="M109.1,782.7c-10.5,26.3-16.8,54.5-25.6,81.6
		C76.9,889.4,67,914,62.9,939.6c1.9,15,19.6,19.9,29.4,28.8c34.9,24.3,68.2,52.2,105.7,72.8c11.8,0.6,20.4-10.8,30.2-16
		C264,999,300.1,972.7,334.7,945c4.7-8.9-4.1-18.8-5.6-27.9c-15.9-43.8-30.3-88.5-46.9-131.8c-7.9-7.2-20.9-1.8-30.8-3.5
		c-46.3,0.2-92.9-1.3-139.1-0.1l-1.6,0.6L109.1,782.7z"/>
	<path id="path3815" inkscape:connector-curvature="0" class="st2" d="M88.2,796c-14,4.4-25.9,14.5-37.2,23.6
		c-9.8,21.2-14.3,44.7-20.3,67.3C25,903.1,39,916.8,47.4,929c6.5,7.1,15.6-0.8,15.8-8.5c11-38.5,24-76.6,33.5-115.5
		C97.5,800.1,93.1,795.4,88.2,796z"/>
	<path id="path3817" inkscape:connector-curvature="0" class="st2" d="M71.1,961.6c-11.7,3.7-3.8,18.1-3.1,26.4
		c2.1,11.8,6.7,24.1,18.3,29.5c18.6,12.5,36.4,27.2,56.1,37.6c13-1,27.5-1.4,39.2-7.9c7.9-9.8-7.2-15.7-13.3-20.7
		c-31.8-20.3-59.7-46-92.8-64.1C74.2,961.7,72.6,961.4,71.1,961.6L71.1,961.6z"/>
	<path id="path3819" inkscape:connector-curvature="0" class="st2" d="M610.7,952.3c-13,6.2-24.1,16.5-35.3,25.4
		c-8,20.9-15.4,42.7-20.9,64.6c-2.2,15.3,6.9,29.5,13.9,42.3c7.8,7.3,14.4-4.1,15.1-11.2c11.7-37.8,24.4-75.4,35.1-113.5
		C618.8,955.5,614.9,952.4,610.7,952.3L610.7,952.3z"/>
	<path id="path3821" inkscape:connector-curvature="0" class="st2" d="M774,933.8c-46.7,2.2-93.5,2-140.1,5.8
		c-9.7,6.2-9,20.4-13.8,30.1c-13,42.7-28.2,84.9-40,127.9c-0.2,11.3,14,14.8,20.7,21.7c37.7,26.9,75.9,53.2,114.6,78.6
		c11.3,2.1,18.7-10.4,27.7-15.1c37.2-28.9,76.5-55.3,111.9-86.5c4.9-9.1-4.3-19.1-5.5-28.3c-15.2-43.8-29.1-88.4-45.3-131.7
		C797.5,929,783.2,935.1,774,933.8L774,933.8z"/>
	<path id="path3823" inkscape:connector-curvature="0" class="st2" d="M584.9,1116.5c-9.5,6.6-1.4,19.3-1.2,28.6
		c1.5,10.7,2.8,22.8,14.6,26.9c21.7,13.9,42.2,30.1,65.2,41.9c12.4-1.3,25.5-3.6,36.9-8.7c8.2-7-1.9-15.4-8.3-18.6
		c-33.9-23.2-67.3-47.6-101.6-69.9C588.7,1115.6,586.8,1116.3,584.9,1116.5L584.9,1116.5z"/>
	<path id="path3825" inkscape:connector-curvature="0" class="st2" d="M846.7,1111.2c-15,6.5-26.9,19.1-40.5,28.1
		c-24.9,19.3-50.8,37.5-74.4,58.2c-5.3,9,5.1,13.7,12.2,15.3c10.7,3.2,23.6,14.9,34.7,5.8c23.4-15.9,46.6-32.3,68.1-50.6
		c10.3-13.1,7-31.4,8.7-46.9C855.7,1115.9,852.3,1110.6,846.7,1111.2z"/>
</g>
<g id="layer1" transform="translate(0,197)" inkscape:groupmode="layer" inkscape:label="colours">
	<path id="path3742" inkscape:connector-curvature="0" class="st2" d="M562.5,770.5c-1-0.4-20.1-13.4-42.3-28.8
		C498,726.3,467.3,705.3,452,695c-26.3-17.8-27.7-18.9-26.9-23c0.5-2.3,12.1-39.5,25.9-82.7l25-78.4l85-2.8
		c51.1-1.7,85.6-1.9,86.6-0.5c0.9,1.2,5.3,13.1,9.7,26.3c27.3,80.7,43.8,130.9,43.6,132.7c-0.1,1.1-27.2,22.5-60.1,47.4
		C567.7,769.5,564.9,771.5,562.5,770.5z"/>
	<path id="path3745" inkscape:connector-curvature="0" class="st4" d="M635.9,291.5c-34.9-23.7-66.4-45.6-70-48.8l-6.6-5.8
		l22.8-79.3c12.6-43.6,23.4-79.8,24.1-80.6c1.5-1.5,78.7-3.8,133.9-4l36.9-0.1l29,79.1c22.1,60.4,28.5,79.7,27,81.5
		c-2,2.4-57.9,46.1-85.8,67c-20.8,15.6-26.4,19.8-36.4,27.4c-4.8,3.6-9.3,6.6-10,6.6C699.9,334.5,670.8,315.2,635.9,291.5
		L635.9,291.5z"/>
	<path id="path3747" inkscape:connector-curvature="0" class="st5" d="M333.3,667.5c-46.6,1.8-85.9,3.1-87.2,2.9
		c-2-0.3-38.3-92.8-60.3-153.5l-2.9-8l11.4-9.9c6.3-5.5,37.4-30.1,69.1-54.7l57.6-44.7l9.3,6c5.1,3.3,32.9,21.3,61.6,39.9
		c28.7,18.6,57.4,37.1,63.6,41s11.6,8.1,11.9,9.3c0.5,1.9-9.2,37.3-38.1,139.1c-4.2,14.6-8.4,27.2-9.4,27.9
		C419,663.6,380,665.7,333.3,667.5L333.3,667.5z"/>
</g>
<g id="layer2" transform="translate(0,197)" inkscape:groupmode="layer" inkscape:label="frame">
	<g id="layer101" transform="matrix(0.98141901,0,0,0.98141901,-29.906511,-66.266642)">
		<path id="path4" inkscape:connector-curvature="0" d="M873.8,966.9c-2.5,8.7-7,23.1-10,32.4l-5.4,16.6l6.3,17.6
			c3.4,9.7,6.9,19.7,7.5,22.1c2.5,9,18.4,55.4,21.1,61.5c1.6,3.6,6.2,18,7.2,22.1c1,4.2,4.8,13.5,5.8,17.2s2.5,8.1,3.1,9.7
			s1.9,5.1,2.8,7.5c2.7,7,2.7,35.4,0.1,44.8c-0.7,2.5-4.3,41.3-4.8,41.8c-5.2,4.5-29.9,23-32.7,24.3c-2.1,1.2-7.2,4.6-11.2,7.8
			c-9.6,7.6-28.8,21.8-37.6,28.1c-7.1,4.9-33.5-4.9-36.8-6.4c-10.2-4.3-22.3-9.9-25.1-11.3c-1.5-0.7-3.3-1-4-0.6
			c-1.8,1-15.1,4.5-23.1,6c-3.3,0.4-19.9,5.5-25.5,5.6l-10.3,0.3l-23.1-15.8c-12.7-8.7-30.8-21.1-40-27.3
			c-9.3-6.4-17.5-13.1-18.1-14.8c-0.7-1.8-1.6-6.6-2.2-10.8c-0.6-4-1.6-10.8-2.5-14.9c-0.7-4-2.7-14.2-4.2-22.4
			c-2.8-14.5-4.5-18.8-20.5-52.9c-8.4-17.8-9-20-6.1-26.7c1.9-4.9,5.5-15.8,12.4-38.4c1.3-4,2.8-8.8,3.6-10.5c0.6-1.6,2.1-6,3.1-9.7
			s3.1-8.5,4.6-10.8c3-4.3,16.6-14.9,36-27.9c6.3-4.3,11.5-8.1,11.5-8.2c0-0.7-15.1-10.3-19.7-12.7c-2.1-1-8.5-5.5-14-9.7
			c-8.8-6.6-10.6-8.7-12.5-15.1c-1.3-4-3-8.8-3.6-10.5s-1.8-4.6-2.4-6.7c-6.4-19.4-11.9-30.2-11.9-23c0,1.8-3.9,14.6-8.2,27.2
			c-0.3,1-1.3,4.6-2.2,7c-1,2.5-2.7,8.2-3.9,12.7s-2.8,9.6-3.6,11.2c-0.7,1.6-2.4,6.9-3.6,11.5c-4.9,19.6-3,18.8-51.7,19.9
			c-51.1,1-123.3,2.2-132,2.2c-5.7,0-8.1,1-16.1,7.3c-5.1,4.2-17.8,13.7-28.1,21.4c-10.3,7.6-20.5,15.2-22.7,16.9
			c-2.2,1.6-9,6.4-14.9,10.8s-20.2,14.9-31.5,23.6c-11.5,8.7-21.1,15.7-21.4,15.7c-0.4,0-3.3,1.9-6.3,4.3
			c-5.7,4.6-14.2,6.7-57.3,14.3l-14.5,2.5l-12.4-8.8c-6.9-4.9-21.8-15.2-33.3-23c-24.6-16.6-33.6-24.8-33.6-31.1
			c0-0.9-5.3-22.7-5.9-26c-4-22.3-6.6-30.2-12.5-39c-3.4-4.8-6.9-9.9-7.6-11.2c-0.9-1.3-5.8-8.7-11.1-16.4
			c-6.6-9.7-9.1-14.9-8.7-17.2c0.4-1.6,2.5-9.1,4.6-16.6c2.1-7.3,5.2-18.1,6.7-23.9c1.5-5.7,4.6-17.5,7-26.1
			c2.2-8.7,4.8-16.6,5.7-17.8c2.7-3.4,17.3-13.9,26.3-18.5c4.5-2.4,9.3-5.2,10.5-6.4c1.3-1,5.7-3.7,9.7-6c4.2-2.1,8.8-5.1,10.6-6.7
			c1.6-1.5,11.4-7.1,17.8-12.5c6.6-5.4,14.3-11.3,17.2-13.4c2.8-1.9,9.6-7,14.9-11.2l9.7-7.5h44.4c24.8,0,46,0.6,48.1,1.5
			c2.1,0.7,9.4,6.7,16.1,13.3c6.7,6.6,12.5,11.8,12.7,11.6c0.1-0.3,0.6-6.6,1-14.2c0.9-14.3,3.1-20.3,8.7-22
			c1.5-0.6,34.9-26.1,38.6-29.1s8.5-6.6,10.9-7.9c4.5-2.8,5.5-6.1,1.5-4.9c-3,0.9-40.6,2.1-72.6,2.5c-22.3,0.1-25.2-0.7-26.9-8.1
			c-0.7-3.3-10.3-30.5-12.8-36.1c-2.2-5.4-7.3-19.3-9.1-25.4c-1-3.3-9.1-25.3-10.6-28.7c-1.6-3.6-18.5-52.5-19.1-53.4
			c-0.6-0.7-1.9-4.8-3.1-8.8c-2.4-8.4-5.7-11.2-38.7-33.5c-11.1-7.5-26.9-18.2-35.1-23.9c-26.7-18.7-71.1-48.8-74.7-50.6
			c-4.3-2.4-6-4.5-10.9-13.6c-6.3-11.8-12.4-22.1-20-34c-8.4-13-9-18.1-4-33.5c1.6-5.4,5.7-20,9-32.6c3.4-13.7,7.2-24.6,9.3-27.5
			c1.8-2.5,8.2-7.9,14.2-12.2c6.1-4.2,15.5-10.8,20.9-14.8c5.5-3.9,13.4-9.3,17.5-12.1c6-4,41.7-33.7,57-47.6
			c2.4-2.1,5.8-3,13.4-3.3c19.1-0.9,77.5-0.7,82.1,0.1c4,0.7,29.4,21.4,39.4,31.8c1.3,1.5,11.3,8.5,22.3,16
			c31.5,21.4,38.5,26.9,41.8,33.7c1.6,3.4,9.6,26.3,10.3,27.8c0.7,1.3,2.7,6.3,4.5,10.8c20.9,57.3,19.9,52.1,13.3,64.5
			c-3,5.4-6,11.9-7,14.6c-1.5,4.3-1.3,4.6,1,3.7c1.3-0.4,4.6-1.3,7-1.8c2.5-0.4,6.3-1.8,8.5-2.8c2.2-1.2,6.6-2.1,9.9-2.1
			c5.7,0,19,8.2,58.8,36.3l10,7.2l-1.5-4.9c-0.9-2.7-1.9-6.3-2.4-7.9c-0.4-1.6-4.4-11.1-6.2-17.2c-1.9-6.1-4.6-13.9-6.1-17.2
			c-1.3-3.3-3.3-9-4.5-12.7c-1-3.7-5.8-17.9-7.5-21.2c-1.6-3.4-3-7-3-7.9c0-2.2,9.1-10.6,21.7-19.7c5.8-4.2,19.1-14,29.7-22
			c10.5-7.9,27.4-20.3,28-20.3c0.7,0,6.6-4.2,13-9.4c6.4-5.1,14.5-11.2,18.1-13.7c15.2-10.8,26.6-19.4,30.5-23
			c4.6-4.3,6.9-10.8,18.4-53.9c2.1-7.8,4.8-17.2,6.1-20.9c2.2-6.7,4.8-15.7,11.6-40.3c1.8-7,5.7-19.7,8.2-28.4
			c6.1-19.7,6.7-23.3,4.8-27.3c-0.9-1.8-3-7.3-4.6-12.2c-2.7-8.4-9.7-28.4-28.5-81.4c-4.2-11.9-9-25.5-10.5-30.3
			c-1.6-4.8-3.9-10.8-5.1-13.4c-4.5-10.3-7.2-21.7-5.7-24.5c2.1-3.7,7-8.2,16.9-14.9c7.8-5.4,52.3-38.4,69.7-51.8
			c4.3-3.4,12.2-9.1,17.5-12.8c19.6-13.7,38.8-28.7,41.3-29.1c4-0.9,8.2,1.3,41.4,23.7c33.9,22.8,77.4,52.4,99.6,67.8
			c9.4,6.4,14,11.8,14,16c0,2.5-0.3,3.6-11.9,41.1c-12.4,39.7-16.4,52.3-21.1,66.6c-2.4,7.5-16.5,54.2-15.5,55.8
			c0.4,0.7,13.7,6.4,22.7,12.3c8.8,6,18.8,12.2,22.1,13.9c4.8,2.4,6.6,4.5,8.8,10.5c1.5,4.2,14.2,39.5,15.4,42.2
			c2.1,4.9,8.8,22.5,13.4,36.1c2.8,8.2,1.8,11.6-9,28.8c-12.4,20.2-15.4,27-20.3,46.1c-8.7,34-10.2,37.8-18.1,44.8
			c-4,3.6-9.7,8.2-13,10.6c-3.1,2.2-11.1,8.2-17.5,13.4c-6.4,5.1-13.6,10.6-15.8,12.2c-2.2,1.6-7.9,6-12.7,9.6l-8.7,6.6l-12.1-1.2
			c-24.6-2.1-30.8-2.4-30.8-1.5s6,15.5,11.2,27.3c3,6.6,2.8,15.2-0.6,24.6c-1.5,4.2-6.3,17.5-10.6,29.1c-4.2,11.8-7.3,21.8-7,22.3
			c0.6,0.6,8.4-5.1,32.1-23.3c4.3-3.4,8.2-6.1,8.7-6.1c0.7,0,20.5-15.4,31.5-24.6c10.9-9.1,11.6-8.8,50.6,17.5
			c18.8,12.7,41.7,28.2,50.9,34.6c9.3,6.3,20.8,13.6,25.7,16.3s15.2,9.1,22.8,14.5l13.9,9.7l89.7-0.4l89.7-0.6l13.7,9.1
			c7.6,5.1,40.3,24.6,49.9,31.9c3.8,2.9,8.1,8.9,10.2,13.7c0.8,1.9,6,18.7,8.7,26.9c2.5,8.2,5.2,16.3,6,17.9c0.7,1.6,2.1,5.7,3.1,9
			c0.9,3.3,2.2,7,2.8,8.2c3.7,7.6,3.1,11.5-3,23.3c-3.3,6.6-10.5,17.9-15.7,25.2c-8.1,11.5-9.6,14.5-9.7,20.2c0,3.7-1,13.4-2.4,21.7
			c-1.2,8.2-2.8,19.3-3.4,24.6c-0.7,5.4-1.8,10.9-2.4,12.4c-0.9,2.2-21.4,18.5-39.7,31.7c-4.5,3.3-13.7,10.2-25.7,19.4
			c-14,10.8-17.3,12.7-21.7,12.7c-4.4,0-11.6-1.9-17.5-4.6c-1.6-0.7-6.7-2.2-11.2-3.4c-4.5-1.2-11.2-3.1-14.8-4.5
			c-7.2-2.7-16.4-0.6-17.4-0.2c-3.6,1.3-12.1,3.8-15.6,5.2c-15.8,6.3-24.5,9.1-27.6,9.1c-2.7,0-26.7-15.5-72.4-47
			c-18.1-12.4-19.1-13.4-21.1-23c-0.9-4.6-7.3-31.2-7.3-33.7c0-10.3-2.7-9.1-20.2,8.2l-16.6,16.6l-30.9-0.4c-17-0.3-30.9,0-30.9,0.4
			c0,1.3,37.3,23.9,62.3,41.2c10.6,7.3,13.7,13.1,11.2,20.5c-0.9,2.5-2.7,9-4,14.3s-4,14.5-6,20.2c-1.8,5.8-4.2,13.1-5.1,16.4
			 M823.3,1302.9c3.4-2.4,20-14.8,26.8-19.9c6.9-5.2,19.3-14.3,27.5-20.5l15.1-11.1l1-12.8c0.4-7,1.5-15.7,2.1-19.1
			c0.7-3.6-0.6-15.1-0.6-15.1l-7.8,5.5c-4.3,3-18.4,13.4-31.2,23.3s-24.3,18.7-25.8,19.4c-1.3,0.9-7.6,5.5-14,10.5
			c-6.4,4.9-13.3,10-15.1,11.2c-6.4,4.2-21.8,17.2-21.8,18.4c0,0.6,0.7,1,1.6,1c0.9,0,4,1,7,2.4c3.1,1.3,7.9,3.4,10.8,4.6
			c2.8,1.3,6.9,3.1,9,4.2C813.6,1308,816.5,1307.5,823.3,1302.9z M720.5,1295.9c4.9-1.3,11.8-2.8,15.4-3.4c3.4-0.7,6.7-1.5,7.2-1.9
			c0.4-0.6-6.9-6.1-16.1-12.5c-9.3-6.3-27.3-18.7-40-27.5c-12.7-8.7-26.9-18.4-31.4-21.7c-18.8-13.4-26.6-18.7-27.5-18.7
			c-1,0,0.9,12.8,5.2,32.6l1.6,7.8l24.6,16.6c13.4,9.1,29.7,20,36,24.3s12.5,7.6,13.7,7.3C710.5,1298.4,715.6,1297.2,720.5,1295.9
			L720.5,1295.9z M767.9,1280.1c2.7-1.9,9.4-7,14.6-11.2c5.4-4.3,16.7-13,25.4-19.4c32.3-23.6,50.2-37,57.5-43
			c4.2-3.4,11.1-8.7,15.4-11.6c4.5-3,10-7.2,12.7-9.4l4.6-3.9l-2.7-8.4c-1.5-4.8-3.3-9.9-4-11.5c-0.6-1.6-6.6-19.1-13.1-38.8
			c-15.4-45.8-15.1-44.9-18.2-53.8c-1.5-4-5.5-15.7-9-25.8l-6.3-18.4l-33.7,0.9c-31.5,0.7-120.8,3.6-130.8,4.2c-3.6,0.3-4.6,1-4.9,4
			c-0.3,2.1-1,5.1-1.6,6.7c-0.7,1.6-2.8,8.1-4.6,14.2c-1.9,6.1-4.6,14.6-6,18.7c-1.5,4.2-4,12.2-5.7,17.9
			c-1.6,5.8-4.3,14.5-6.1,19.4c-1.6,4.9-5.5,17-8.5,26.9c-2.8,9.9-5.8,19.3-6.4,20.9c-0.7,1.6-3.3,9.1-5.8,16.7
			c-5.1,15.4-5.7,13.4,7.2,22.3c3.7,2.5,12.8,8.8,20.2,13.9c7.5,5.2,24.2,16.6,37.3,25.5c13.1,9,33.6,23,45.5,31.2
			s21.8,14.9,22,14.9C762.8,1283.3,765.2,1281.9,767.9,1280.1L767.9,1280.1z M618.1,1162.8c3-10.9,15.1-49,19.9-62.6
			c2.2-6.6,4.2-12.8,4.2-13.9c0-2.1,7.8-26.6,11.9-37.8l2.7-7l-9.3,6.6c-24.3,17.5-26.3,19.1-27.3,22.8c-0.4,2.1-14.5,45.8-16.5,51
			c-4.5,11.5-4.3,14.2,0.7,25.5c2.7,6.1,6.1,13.6,7.3,16.7c1.3,3,2.8,5.5,3.4,5.5C615.7,1169.9,616.9,1166.7,618.1,1162.8
			L618.1,1162.8z M211.1,1130.7c2.4-1.8-0.4-4-27-22c-16.3-11.1-32.3-22.5-35.5-25.5c-5.1-4.5-28.2-20.8-42.9-30l-4.2-2.7l0.9,5.7
			c0.4,3,1.8,9.6,3.1,14.5s2.7,11.5,3.3,14.5c0.7,4.9,2.2,6.6,13.6,14.3c7,4.8,16.4,11.2,20.9,14.5c31.4,22.4,32.6,23,40.9,22.1
			C188.4,1135.5,209.6,1131.7,211.1,1130.7z M243.1,1118.8c3.9-2.5,11.5-8.4,17-12.7c5.5-4.3,10.5-7.9,11.1-7.9
			c0.4,0,26.5-19.2,32.8-24.3c6.3-5.2,12.5-10,13.9-10.9c1.5-0.7,13.1-9.4,25.8-19.1l23.4-17.6l-2.7-8.5c-1.5-4.6-5.8-16.9-9.4-27.2
			c-3.7-10.3-7.5-21.1-8.5-23.9s-2.5-6.4-3.1-7.8c-0.7-1.5-7.7-22.5-8.6-25.8c-1-3.3-2.4-7.3-3.1-9c-3.1-7.3-14.2-39.6-15.7-44.1
			s-3.1-8.8-3.7-9.6c-1-1-30.5-1.2-138-0.3l-28.2,0.3l-2.2,6.6c-1.2,3.7-2.7,8.1-3.3,9.7s-1.9,5.8-2.8,9.4
			c-3.7,14-5.2,19.6-9.1,31.7c-2.2,7-4.9,16.3-6,20.6c-1,4.2-9.2,32.1-11.9,38.4c-0.6,1.6-1.9,6.4-3,10.5c-1,4.2-3,10.9-4.6,14.9
			c-1.5,4.2-3,9.7-3.1,12.5c-0.4,4.8,0,5.2,24.9,22.1c14,9.4,27.8,19.3,30.6,22s13,10.2,22.4,16.7c28.7,19.6,37.8,25.7,46.3,32
			c4.5,3.1,9.1,5.8,10.2,6C235.2,1123.6,239.2,1121.5,243.1,1118.8L243.1,1118.8z M381.5,1021.1l71.7-1.2
			c39.4-0.7,75.7-1.5,80.7-1.6c20-0.7,17.5,0.9,22.3-14.5c2.4-7.6,5.5-17.6,6.9-22.1c8.4-26,10.5-33,12.8-41.8
			c1.3-5.4,9.2-30.1,10.3-32.9c2.8-7.3,12.2-38.7,13.4-44.2c0.9-4.5,0.4-4.8-27.2-23.4c-15.4-10.5-39.1-26.6-52.7-35.8
			c-13.6-9.3-30.3-20.8-37.3-25.5c-7-4.8-13.9-9.7-15.4-11.1c-2.4-2.1-3-2.1-7.5,0c-2.8,1.3-8.1,4.9-11.8,8.1
			c-3.9,3.3-11.2,9-16.4,12.7c-5.2,3.7-17.5,12.8-27.2,20.2c-9.9,7.3-22.5,16.7-28.4,20.8c-5.8,4.2-19.1,13.7-29.6,21.5l-18.8,14
			l5.8,17.3c3.3,9.6,6.6,18.7,7.2,20.3c0.7,1.6,1.8,4.3,2.1,6c0.7,2.8,7.3,21.7,9.9,28.4c1.2,2.8,3.4,9.4,8.5,24.3 M722.8,1012.5
			c17.6-0.4,45.5-1.3,62-1.9c16.4-0.6,33.3-1.2,37.3-1.2c21.4-0.4,21.2-0.4,22.8-4.8c0.9-2.4,3.4-10.6,5.7-18.4
			c2.2-7.8,4.5-15.2,5.1-16.4c0.7-1.2,9.8-33.7,12.8-42.8c3-9,5.7-17.6,6.1-19.3c0.7-3.4,1.2-5.1,2.2-8.2c0.7-2.2,5.2-17.2,9.3-30.6
			c1.2-4,2.8-10,3.7-13.1l1.5-5.7L869,835.3c-12.2-8.2-91.6-60.4-105.3-70c-4.8-3.3-9.3-6.1-9.9-6.1c-1.2,0-18.5,12.5-39.1,28.4
			c-8.1,6.1-18.8,14.2-23.9,17.9c-5.2,3.7-12.4,9.3-16.1,12.2c-3.7,3-15.4,11.9-26,19.9c-29.4,21.8-29.3,21.7-28.2,24.3
			c0.6,1.5,2.7,7.3,4.8,13c2.1,5.8,7.7,21.4,9.2,25c4.8,10.8,17.5,46.1,19.1,51c9.7,27.6,22.1,61.4,23,62c0.6,0.4,4,0.6,7.6,0.4
			C687.7,1013.4,705.1,1012.9,722.8,1012.5L722.8,1012.5z M89.6,1001.9c0.6-1.6,2.7-8.7,4.5-15.7s5.2-18.7,7.6-25.8
			c2.4-7.3,4.3-14.2,4.3-15.1c0-1,2.7-10,6-20c3.3-9.9,6.1-19.6,6.6-21.5c0.4-1.9,1.8-7,3.1-11.3s2.2-8.7,1.9-9.4
			c-0.4-1.3-9.1,3.7-23.9,13.9c-2.2,1.5-14.4,9.3-15.1,12.7c-1.2,6-6.9,26.9-9.4,34.8c-1.3,3.7-2.8,9.4-3.6,12.7
			c-0.6,3.3-2.4,10.3-3.7,15.5c-2.5,9.4-2.5,9.6,0.7,15.7c1.9,3.3,6.6,10.5,10.3,15.7l6.7,9.6l1.3-4.3
			C87.8,1006.8,88.8,1003.5,89.6,1001.9L89.6,1001.9z M653.2,996.3c-1.2-3.6-2.7-7.8-3.4-9.4c-2.1-5.2-6.4-17.8-7.5-22.4
			c-0.7-2.5-2.2-6.9-3.6-9.7c-2.1-4.8-16.3-42.7-20.6-55.3c-1-2.8-2.8-8.2-4-11.6l-2.2-6.6l-4.9,14.8c-2.8,8.1-5.1,16.7-5.1,19.3
			c0,4.2,9.5,31.6,10.2,33.1c0.7,1.3,2.8,6.6,4.6,11.5s3.9,10.3,4.5,11.9c0.7,1.6,1.9,5.1,2.7,7.5c1.3,4.8,11.3,13.3,22.7,19.3
			C655.7,1003.5,655.7,1003.5,653.2,996.3L653.2,996.3z M1038,854.6c2.8-0.9,6.4-2.1,8.1-2.8c1.6-0.7,6.3-2.4,10.2-3.9
			c3.9-1.3,7.5-3,7.8-3.6s-9-7.6-20.6-15.5c-19-12.8-51.2-34.9-80.9-55.3c-5.7-4-11.6-8.4-13.3-9.7c-2.7-2.2-2.7-2.1-1.6,5.1
			c0.6,4.2,1.9,10.2,3,13.4c1,3.3,2.7,9.7,3.7,14.2l1.8,8.2l26.9,17.9c14.8,9.9,31.7,21.5,37.5,25.7c6,4.3,11.2,7.9,11.6,7.9
			S1035.2,855.5,1038,854.6z M298.1,852.8c0.3-0.3-4.6-5.7-10.9-11.9l-11.5-11.3h-40.2h-40.2l-15.1,11.3
			c-8.4,6.3-15.8,11.9-16.6,12.5c-0.6,0.6,29.1,0.9,66.3,0.6S297.8,853.1,298.1,852.8z M1142.1,850.7c5.7-4,18.8-14,38.8-29.6
			c5.4-4,11.1-8.2,12.8-9.3c1.7-1.1,6-4.3,9.4-7.5c6.9-6.1,6.3-3.6,10.5-39.1l0.7-6.6l-4.2,3.1c-2.4,1.8-12.1,9-21.5,15.8
			s-28.7,21.2-32.3,24.3c-3.7,3-11.1,8.5-16.3,12.2c-34.9,25.1-39.9,29-37.8,30.2c2.4,1.3,11.2,4.2,22.1,7.3c3.7,1,7.5,2.1,8.2,2.2
			C1135.7,854.9,1136.4,854.8,1142.1,850.7L1142.1,850.7z M701.8,632.8c-1.6-3.6-8-22.6-10.9-30.3l-5.2-14.2l-28.1,0.3
			c-15.4,0.3-44.2,0.7-63.9,1c-19.7,0.4-44.7,0.7-55.6,0.7l-19.7,0.1l-2.2,8.7c-1.3,4.6-3.1,11.2-4,14.5c-0.9,3.3-2.8,9.4-4.3,13.4
			c-1.5,4.2-3.4,10.3-4.3,13.9c-0.9,3.4-2.4,9.1-3.3,12.7c-0.9,3.4-2.2,7.6-3,9.3c-0.6,1.6-4,12.7-7.5,24.6
			c-3.4,11.9-6.7,23-7.5,24.6c-0.6,1.6-1.8,5.4-2.7,8.2c-0.7,2.8-2.8,9.6-4.5,14.9c-4.8,14.8-4.8,14.9,9.7,24.8
			c7,4.9,15.5,10.9,19,13.4c3.4,2.5,20.8,14.3,38.4,26.3c17.6,11.8,40.2,27,50,33.7c9.7,6.7,18.1,12.2,18.4,12.2
			c0.3,0.2,3.4-2.2,7-5c3.4-2.8,6.9-5.2,7.6-5.4c0.6,0,5.2-3.3,10.2-7.3c4.9-4.2,11.9-9.6,15.7-12.2c3.7-2.5,11.5-8.5,17.2-13.1
			c5.8-4.6,14.2-10.9,18.7-14.2s11.6-8.5,15.7-11.9c4.2-3.3,8.5-6.6,9.9-7.5c3.3-2.1,20-14.8,25.7-19.6l4.6-3.9l-2.7-7.8
			 M350.6,827.1c1.3-0.7,4.9-3.4,7.9-6c2.8-2.4,10.3-8.1,16.4-12.4c26.1-18.5,38.1-27.2,53.5-39.1c10.8-8.4,11.5-7.9-11.6-7.5
			l-13.9,0.3l-10.8,8.1c-15.4,11.8-34.6,26.1-41.8,31.1c-3.3,2.4-9.1,6.9-12.8,10.2c-3.7,3.3-7.6,6.6-8.5,7.3
			c-1.3,0.9-1.9,5.7-1.9,13.3v11.9l10.6-7.9C343.3,832.2,349.3,828,350.6,827.1L350.6,827.1z M1098,825.3
			c6.3-5.1,13.4-10.5,15.7-11.9c2.2-1.3,7.2-5.1,10.9-8.2c3.9-3.1,26.6-18.7,37.9-28c9-7.3,24.5-18.7,33.6-24.8
			c3.7-2.4,9.6-6.9,12.8-9.9l6.3-5.5l-6-17c-3.1-9.3-6.9-19.9-8.1-23.6c-1.2-3.7-7.9-21.7-8.9-24.4c-4.5-12.2-19.3-53.6-22.3-62.3
			c-1.9-5.4-5.2-14.3-7.3-20.2c-2.1-5.7-3.9-10.5-3.9-10.6c0,0-17.9,0.1-39.9,0.3c-22.1,0.3-55.1,0.4-73.6,0.6
			c-42.9,0.3-55.3,1.2-55.3,3.9c0,1-1.9,7.8-4.3,15.1c-2.4,7.2-6.7,21.5-9.9,31.8c-3,10.3-6.9,22.7-8.4,27.6
			c-4.5,13.7-8.5,30.4-9.7,32.8c-1,2.5-3.7,10.9-5.8,18.7c-2.2,7.8-4.9,17.6-6.1,21.7c-1,4.2-2.1,8.2-2.1,9c0,0.9,14.8,11.6,33,23.9
			c18.2,12.4,35.8,24.5,39.3,27c3.3,2.5,16.6,11.5,29.3,20c12.7,8.5,26,17.8,29.6,20.3c4,3.1,7.5,4.6,9,4
			C1085.2,835.2,1091.6,830.6,1098,825.3L1098,825.3z M902.3,764c13.4-13.7,13.7-14,8.7-13.1c-2.8,0.6-17,1.3-31.4,1.8
			c-14.3,0.3-36.6,0.9-49.3,1.3c-12.7,0.4-30.2,0.7-38.8,0.7c-9.6-0.1-15.1,0.4-14.2,1.2c0.9,0.7,7.8,5.5,15.4,10.8l13.9,9.3
			l18.2,0.7c10,0.4,18.4,0.9,18.5,1c0.1,0,10.3,0.3,22.5,0.3l22.4,0.1L902.3,764z M356.9,748c11.1-0.3,36.6-1,56.7-1.6
			c20.2-0.4,37.9-1.5,39.7-2.1c2.1-0.9,3.6-3.6,5.1-9.7c1-4.6,5.1-18.2,5.8-20.8c0.9-2.5,2.8-9.3,4.6-15.1
			c7.9-25.5,13.9-45.5,16.4-55.3c3.6-13.3,7.8-27.9,12.7-44.8l4-13.4c0,0-13-9.9-14.8-10.3c-2.8-0.7-32.4-20.5-59.6-39.7
			c-24.8-17.5-62-41.8-64.1-41.8c-1.3,0-7,3.7-12.7,8.4c-5.7,4.5-14.6,11.5-20,15.2c-5.2,3.9-14.8,11.1-21.1,16
			c-6.4,4.9-12.7,9.7-14,10.5c-1.3,0.9-6.1,4.6-10.6,8.4c-4.5,3.7-10.6,8.4-13.4,10.3c-4.8,3.3-14.9,11.2-27.8,21.7
			c-2.7,2.1-14.5,11-13.6,13.7c0.4,1.5,3.6,10.5,7,19.9s6.7,18.8,7.5,20.9c0.6,2.1,3.3,9.4,6,16.4c2.5,7,5.7,15.7,6.9,19.4
			c2.2,6.9,11.4,29.9,12.4,33.8c1,4,5.5,14.5,7.3,19.9s4.5,12.5,5.7,16.1l2.4,6.4l25.5-0.7C325.2,749,345.8,748.4,356.9,748
			L356.9,748z M856.4,737.4c12.4-0.3,33.2-1,46.3-1.5c13-0.3,24-1,24.5-1.5s1.6-3.6,2.5-7c6.3-22.5,8.2-29,9.3-30.9
			c0.7-1.2,11.3-36.3,13.1-43.3c1.9-7,6.3-21.4,9.6-32.1c13.9-43.6,14-44.2,10.9-47c-4.6-4.5-26.4-19-30.2-20.2
			c-1.9-0.6-42.6-27.8-57.7-38.1c-14.9-10.3-32.3-22.1-38.5-26.4c-11.1-7.8-11.2-7.8-13.9-4.8c-1.5,1.6-7.8,6.7-14,11.2
			c-26,18.8-49.1,36.4-69.6,52.2c-6.4,4.9-19.6,14.9-29,22.1c-9.4,7.2-17.3,13.7-17.6,14.5c-0.3,0.7,0.9,5.2,2.7,9.9
			c1.8,4.8,4.5,12.7,6.1,17.6c1.6,4.9,3.6,10.3,4.2,11.9c2.4,5.2,6.3,16,10.2,27.6c1.9,6.1,7,20.8,7.6,21.7c0.6,0.7,2.1,4,3.1,7.3
			s2.4,7.3,3.3,9c0.7,1.6,3.3,8.4,5.7,14.9s6.3,17.2,8.5,23.6l4.3,11.6l38.1-0.9C816.8,738.6,844.2,737.8,856.4,737.4L856.4,737.4z
			 M1232.9,713.3c3.1-4.8,7.6-12.4,9.9-17l4-8.4l-4-11.1c-2.2-6.1-7.8-21.8-12.1-34.9l-8.1-23.9l-15.8-10.6
			c-14.5-9.9-24.2-15.5-26.1-15.5c-0.4,0,0.6,3.1,2.1,6.9c1.6,3.7,4.3,13.9,5.8,17.5c1.5,3.4,3.9,9.3,5.1,13c7.2,20.9,11.8,34,13,37
			c3.1,7,13.3,37.3,15.7,42.9c1,2.5,2.5,6.3,3,8.7c0.6,2.2,1.2,4,1.5,4C1226.9,721.9,1229.6,718,1232.9,713.3L1232.9,713.3z
			 M227.4,575.7c4.3-3.3,19.1-15.1,19.7-15.1s4.5-2.8,8.7-6.3c4.2-3.6,9.1-7.5,10.9-8.7s12.8-9.6,24.5-18.7
			c11.6-9,24.3-18.8,28.4-21.7c25.5-18.7,34.3-26.1,33.6-28.4c-0.6-1.2-3.3-8.7-6.1-16.4c-2.8-7.8-5.8-15.5-6.6-17.2
			c-0.6-1.6-2.7-7.3-4.5-12.7c-1.6-5.4-3.7-11.1-4.5-12.7c-0.9-1.6-5.5-14.3-10.6-28.4c-11.1-31.2-17.6-48.4-19.4-51.8
			c-0.7-1.5-6.3-17.7-6.3-17.7l-45.5,0.7c-98.3,1.6-122.9,2.2-124.2,3.1c-0.7,0.4-1.9,7.9-2.6,9.9c-1.5,3.7-5.7,17.2-7.8,24.8
			c-0.7,2.5-1.9,7-2.7,9.7c-1.9,6.4-3.9,13.3-6.7,24.2c-1.3,4.9-4.2,14.3-6.1,20.9c-2.1,6.6-6,20-8.8,29.9s-6.6,22.7-8.2,28.7
			c-1.8,5.8-3.1,11.2-3.1,12.1c0,0.7,7.6,6.4,16.9,12.7c9.1,6.3,25.5,17.3,36.1,24.8c10.8,7.5,27,18.7,36.3,25.1
			c9.4,6.4,24.5,16.9,33.6,23.1c9.3,6.3,16.9,11.5,17.2,11.5C219.4,581.5,223.1,578.8,227.4,575.7L227.4,575.7z M612.4,573.1l72.6-1
			l2.4-7.6c1.5-4.2,4.6-14.3,7.2-22.5c2.4-8.2,7-23,10.2-32.9c6.1-19.4,14-44.8,20.3-65c2.1-7,4.5-14,5.2-15.7
			c0.7-1.6,1.6-5.5,1.8-8.7c0.4-5.7,0.4-5.8-15.2-16.7c-14.9-10.5-42.3-29.1-95.3-65.1c-27.9-19.1-24-18.7-42.1-4.3
			c-6.1,4.9-16,12.4-22,16.4c-5.8,4-14.6,10.6-19.4,14.6c-4.8,3.9-11.6,9-15.4,11.2c-6,3.6-14.9,10.2-47.2,34.8
			c-4.9,3.7-9.9,7.3-10.8,7.9c-1.2,0.6,0.4,7,5.1,20.3c12.7,36.3,16.6,47.8,19.9,57.5c1.8,5.4,3.9,11.1,4.6,12.7
			c1.6,3.9,8.7,23.6,16.7,47.6l6.4,19.1l11.2-0.9C534.7,574.5,572.5,573.7,612.4,573.1L612.4,573.1z M495,558
			c-2.7-7-8.1-22.4-8.5-24.8c-0.4-2.7-4.9-6-51.8-37.8l-26-17.6l-9.1,2.7c-5.1,1.3-11.1,3-13.6,3.6l-4.3,1.2l6.6,4.5
			c3.7,2.5,20.5,14,37.3,25.5c29.6,20.2,36.9,25.2,56,38.8C491.1,560.9,496.8,562.5,495,558L495,558z M715.9,553.4
			c7.8-6.3,9.1-8.2,13.1-19c2.4-6.6,4.6-13.3,4.9-14.8c0.7-3.4,17.9-48.4,19.1-52.5c2.1-7.3,2.1-7.8-2.4-19.1
			c-2.4-6.3-4.9-11.5-5.4-11.5s-2.8,6.3-5.1,13.9c-2.2,7.5-5.5,17.8-7.2,22.7c-1.6,4.9-4,12.7-5.2,17.2s-3.4,11.6-4.9,15.7
			c-1.6,4.2-4.3,12.5-6.1,18.7s-5.2,16.7-7.5,23.6c-2.2,6.7-3.7,12.2-3.1,12.1C706.6,560.4,711,557.3,715.9,553.4L715.9,553.4z
			 M68.7,461c0-1.8,9.1-31,12.2-43c0.9-3.3,2.8-10,4.3-14.9c4.3-14.5,8.5-29.1,11.6-41.1c1.6-6.1,4.3-14.8,6-19.3
			c2.7-7.3,2.8-7.8,0.3-5.5c-1.5,1.3-9.1,5.2-13.6,8.8c-4.5,3.4-12.1,8.8-16.7,11.9c-7.2,4.8-8.8,6.6-10.2,11.9
			c-1.6,6-4.2,15.4-10.6,37.6c-6.3,22-6.9,29.7-2.1,33.6C50.9,441.9,68.5,470.5,68.7,461z M368.6,453.3c1.5-2.2,3.9-6.7,5.4-10.2
			c2.5-6,2.5-6.1-1.8-18.7c-5.1-14.3-14.8-40.9-16.7-45.4c-0.6-1.6-2.7-7-4.5-11.9s-3.9-10.8-4.8-13c-0.9-2.5-6.3-7-15.1-13
			c-7.5-4.9-13.7-8.8-14-8.5c-0.1,0.1,1.6,5.7,4.2,12.2c2.5,6.4,5.5,14.5,6.6,17.8c1,3.3,3.7,10.8,6,16.4c2.1,5.8,5.4,14.5,7,19.4
			s3.9,11.1,4.9,13.4c1,2.5,4,10.9,6.7,18.7s10.4,26.8,10.4,28.5C362.9,460.5,367.1,455.4,368.6,453.3L368.6,453.3z M808.6,399.3
			c7.5-5.7,18.4-14.3,24.5-19c6.1-4.8,14.3-11.1,18.4-13.9c8.2-6,10.9-9.4,12.1-15.7c0.4-2.4,1.6-7.2,2.5-10.5
			c2.7-9.4,3.4-14.2,2.1-14.2c-0.7,0-6.4,4.2-12.5,9.4c-6.1,5.1-13.6,10.9-16.4,12.8c-2.8,2.1-9.1,6.9-13.7,10.9
			c-4.6,3.9-26.3,19.3-37.2,28.4c-3.9,3.1-25.1,18.2-24.3,19.1c0.7,0.6,14.9,2.1,26.7,2.7C794.1,409.6,798.3,407.4,808.6,399.3
			L808.6,399.3z M763.4,386.5c3-2.7,6.9-5.7,8.7-6.6c1.8-0.9,6.7-4.5,10.9-7.8c4.3-3.1,13-9.9,19.4-14.8
			c23.6-17.9,31.8-24.3,37-28.8c3-2.5,11.8-9.3,19.7-15.1c15.8-11.6,15.5-10.9,9.7-24.3c-1.5-3.6-14.2-38.5-17.5-47.5
			c-3.3-9.1-8.4-23.1-11.5-31.4c-3-8.2-7.6-20.9-10.3-28.4c-2.5-7.3-5.8-16-7.2-19.3c-1.5-3.1-3.5-12.2-4.9-13.4
			c-1.9-2.1-5.7-2.2-25.7-1.6c-12.8,0.4-49.3,1-80.9,1.5c-33.7,0.4-58.1,1.5-58.8,2.2c-1.2,1.2-9,26.3-11.9,38.1
			c-0.1,0.9-1.5,5.2-2.8,9.7c-4.5,14.6-13.3,45.4-14.5,50.8c-0.6,2.8-3,11.3-5.2,18.7c-2.2,7.5-4.2,14.5-4.5,15.7s-1.5,4.9-2.7,8.2
			c-1.2,3.3-2.5,8.4-3,11.2c-1.2,6-6.6,1.8,55.7,43.9c20.2,13.6,46.3,31.5,58.1,39.6l21.7,14.6l7.5-5.2
			C754.4,393.8,760.2,389.1,763.4,386.5L763.4,386.5z M211.3,305.2c20.6-0.1,44.7-0.3,53.5-0.3c9-0.1,15.7-0.6,14.9-1
			c-0.6-0.6-6.7-6-13.4-11.9l-12.2-10.9l-41.4,0.1l-41.4,0.1l-13.6,11.5c-7.5,6.3-14.3,12.1-15.4,13c-1.3,1.2,2.8,1.3,14.9,0.7
			C166.5,306.1,190.8,305.5,211.3,305.2L211.3,305.2z M887,283.7l13.7-23.3l0,0l-6-16.9c-3.3-9.1-7.2-20-8.5-24.2
			c-1.5-4-3.3-8.8-3.9-10.5c-0.7-1.6-2.7-7-4.5-11.9c-6-16.9-5.8-16.7-23.3-28.4c-16-10.6-18.7-11.6-15.5-5.5
			c1.2,2.1,9.3,24.2,15.2,42.1c1,2.8,2.7,7.3,3.6,9.7c8.2,21.7,18,42.9,24.2,65.3C882.6,282.3,886.6,285.8,887,283.7L887,283.7z
			 M742.2,132.9c30-0.6,63.6-2.2,67.4-2.2c6.6-0.1,6.9-0.3,8.5-5.7c1-3.1,3.9-12.4,6.4-20.6s5.2-16.9,5.8-19.4
			c1.3-4.5,4.8-15.2,11.2-35.8c1.8-5.7,5.5-17.5,8.2-26.1c2.7-8.7,6.1-19.4,7.8-23.9c1.6-4.5,5.7-17.3,6.1-19.4
			c0.9-3.9,0.3-4.5-18.4-17c-8.8-6-55.3-37.6-69.4-47.3c-7.3-5.1-20.8-14.2-29.7-20.3c-8.8-6.1-17-10.8-18.2-10.3
			c-1.2,0.4-9.1,6.1-17.6,12.8c-8.5,6.6-24.2,17.3-32.4,23.8c-8.1,6.6-30.6,22.1-37.3,27.2c-6.6,5.2-13.1,10.2-14.5,10.9
			c-1.3,0.9-5.8,4.2-10,7.5c-4,3.3-10.3,7.9-13.6,10.2l-6.3,4.2l3.7,10c1.9,5.5,4.8,13.7,6.4,18.2c1.5,4.5,4.9,13.9,7.5,20.9
			c2.7,7,5.1,14,5.5,15.7c0.3,1.6,13,39.2,13.9,40.7c0.7,1.3,3.9,9.6,6.9,18.2c11.1,31.8,8.8,28.2,17.6,28.7
			c4.2,0.3,12.7,0.3,18.8,0.3C682.6,133.9,712.2,133.5,742.2,132.9L742.2,132.9z"/>
		<path id="path6" inkscape:connector-curvature="0" d="M1021.4,93.5"/>
	</g>
</g>
</svg>
